<?xml version="1.0" encoding="UTF-8"?>
<svg width="500" height="500" viewBox="0 0 500 500" xmlns="http://www.w3.org/2000/svg">
  <defs>
    <filter id="shadow" x="-20%" y="-20%" width="140%" height="140%">
      <feDropShadow dx="2" dy="5" stdDeviation="8" flood-opacity="0.1"/>
    </filter>
    <mask id="paper-mask">
      <rect x="100" y="38" width="300" height="424" fill="white" rx="3" ry="3" />
      
            <circle cx="110" cy="68.52799999999999" r="7" fill="black" />
            <rect x="95" y="64.52799999999999" width="15" height="8" fill="black" />
        
            <circle cx="110" cy="104.82239999999999" r="7" fill="black" />
            <rect x="95" y="100.82239999999999" width="15" height="8" fill="black" />
        
            <circle cx="110" cy="141.11679999999998" r="7" fill="black" />
            <rect x="95" y="137.11679999999998" width="15" height="8" fill="black" />
        
            <circle cx="110" cy="177.41119999999998" r="7" fill="black" />
            <rect x="95" y="173.41119999999998" width="15" height="8" fill="black" />
        
            <circle cx="110" cy="213.70559999999998" r="7" fill="black" />
            <rect x="95" y="209.70559999999998" width="15" height="8" fill="black" />
        
            <circle cx="110" cy="249.99999999999997" r="7" fill="black" />
            <rect x="95" y="245.99999999999997" width="15" height="8" fill="black" />
        
            <circle cx="110" cy="286.2944" r="7" fill="black" />
            <rect x="95" y="282.2944" width="15" height="8" fill="black" />
        
            <circle cx="110" cy="322.5888" r="7" fill="black" />
            <rect x="95" y="318.5888" width="15" height="8" fill="black" />
        
            <circle cx="110" cy="358.8832" r="7" fill="black" />
            <rect x="95" y="354.8832" width="15" height="8" fill="black" />
        
            <circle cx="110" cy="395.1776" r="7" fill="black" />
            <rect x="95" y="391.1776" width="15" height="8" fill="black" />
        
            <circle cx="110" cy="431.472" r="7" fill="black" />
            <rect x="95" y="427.472" width="15" height="8" fill="black" />
        
    </mask>
  </defs>

  <rect width="500" height="500" fill="#fce8ec" />
  
  <g filter="url(#shadow)">
      <rect x="104" y="42" width="300" height="424" fill="#ffffff" mask="url(#paper-mask)" opacity="0.4" />
      <rect x="102" y="40" width="300" height="424" fill="#ffffff" mask="url(#paper-mask)" opacity="0.7" />
      <rect x="100" y="38" width="300" height="424" fill="#ffffff" mask="url(#paper-mask)" />
  </g>
  
  <g mask="url(#paper-mask)">
      
                <defs>
                    <pattern id="grid_a4_Blanco" width="12" height="12" patternUnits="userSpaceOnUse" x="135" y="61.52799999999999">
                        <path d="M 12 0 L 0 0 0 12" fill="none" stroke="#d0d0d0" stroke-width="1.2"/>
                        <path d="M 0 12 L 12 12" fill="none" stroke="#d0d0d0" stroke-width="1.2"/>
                    </pattern>
                </defs>
                <rect x="135" y="61.52799999999999" width="241.47199999999998" height="376.94399999999996" fill="url(#grid_a4_Blanco)" />
            
  </g>
</svg>