<?xml version="1.0" encoding="UTF-8"?>
<svg width="500" height="500" viewBox="0 0 500 500" xmlns="http://www.w3.org/2000/svg">
  <defs>
    <filter id="shadow" x="-20%" y="-20%" width="140%" height="140%">
      <feDropShadow dx="2" dy="5" stdDeviation="8" flood-opacity="0.1"/>
    </filter>
    <mask id="paper-mask">
      <rect x="100" y="38" width="300" height="424" fill="white" rx="3" ry="3" />
      
            <circle cx="110" cy="70.22399999999999" r="7" fill="black" />
            <rect x="95" y="66.22399999999999" width="15" height="8" fill="black" />
        
            <circle cx="110" cy="121.58857142857141" r="7" fill="black" />
            <rect x="95" y="117.58857142857141" width="15" height="8" fill="black" />
        
            <circle cx="110" cy="172.95314285714284" r="7" fill="black" />
            <rect x="95" y="168.95314285714284" width="15" height="8" fill="black" />
        
            <circle cx="110" cy="224.3177142857143" r="7" fill="black" />
            <rect x="95" y="220.3177142857143" width="15" height="8" fill="black" />
        
            <circle cx="110" cy="275.68228571428574" r="7" fill="black" />
            <rect x="95" y="271.68228571428574" width="15" height="8" fill="black" />
        
            <circle cx="110" cy="327.04685714285716" r="7" fill="black" />
            <rect x="95" y="323.04685714285716" width="15" height="8" fill="black" />
        
            <circle cx="110" cy="378.4114285714286" r="7" fill="black" />
            <rect x="95" y="374.4114285714286" width="15" height="8" fill="black" />
        
            <circle cx="110" cy="429.776" r="7" fill="black" />
            <rect x="95" y="425.776" width="15" height="8" fill="black" />
        
    </mask>
  </defs>

  <rect width="500" height="500" fill="#e8fcf0" />
  
  <g filter="url(#shadow)">
      <rect x="104" y="42" width="300" height="424" fill="#fdf5e6" mask="url(#paper-mask)" opacity="0.4" />
      <rect x="102" y="40" width="300" height="424" fill="#fdf5e6" mask="url(#paper-mask)" opacity="0.7" />
      <rect x="100" y="38" width="300" height="424" fill="#fdf5e6" mask="url(#paper-mask)" />
  </g>
  
  <g mask="url(#paper-mask)">
      
  </g>
</svg>