<?xml version="1.0" encoding="UTF-8"?>
<svg width="500" height="500" viewBox="0 0 500 500" xmlns="http://www.w3.org/2000/svg">
  <defs>
    <filter id="shadow" x="-20%" y="-20%" width="140%" height="140%">
      <feDropShadow dx="2" dy="5" stdDeviation="8" flood-opacity="0.1"/>
    </filter>
    <mask id="paper-mask">
      <rect x="60" y="136" width="380" height="228" fill="white" rx="3" ry="3" />
      
            <circle cx="70" cy="170.2" r="7" fill="black" />
            <rect x="55" y="166.2" width="15" height="8" fill="black" />
        
            <circle cx="70" cy="210.1" r="7" fill="black" />
            <rect x="55" y="206.1" width="15" height="8" fill="black" />
        
            <circle cx="70" cy="250" r="7" fill="black" />
            <rect x="55" y="246" width="15" height="8" fill="black" />
        
            <circle cx="70" cy="289.9" r="7" fill="black" />
            <rect x="55" y="285.9" width="15" height="8" fill="black" />
        
            <circle cx="70" cy="329.8" r="7" fill="black" />
            <rect x="55" y="325.8" width="15" height="8" fill="black" />
        
    </mask>
  </defs>

  <rect width="500" height="500" fill="#e8fcf0" />
  
  <g filter="url(#shadow)">
      <rect x="64" y="140" width="380" height="228" fill="#fdf5e6" mask="url(#paper-mask)" opacity="0.4" />
      <rect x="62" y="138" width="380" height="228" fill="#fdf5e6" mask="url(#paper-mask)" opacity="0.7" />
      <rect x="60" y="136" width="380" height="228" fill="#fdf5e6" mask="url(#paper-mask)" />
  </g>
  
  <g mask="url(#paper-mask)">
      <line x1="60" y1="171" x2="440" y2="171" stroke="#e06666" stroke-width="1.5" />
<line x1="60" y1="184" x2="440" y2="184" stroke="#8db4e2" stroke-width="1.2" />
<line x1="60" y1="197" x2="440" y2="197" stroke="#8db4e2" stroke-width="1.2" />
<line x1="60" y1="210" x2="440" y2="210" stroke="#8db4e2" stroke-width="1.2" />
<line x1="60" y1="223" x2="440" y2="223" stroke="#8db4e2" stroke-width="1.2" />
<line x1="60" y1="236" x2="440" y2="236" stroke="#8db4e2" stroke-width="1.2" />
<line x1="60" y1="249" x2="440" y2="249" stroke="#8db4e2" stroke-width="1.2" />
<line x1="60" y1="262" x2="440" y2="262" stroke="#8db4e2" stroke-width="1.2" />
<line x1="60" y1="275" x2="440" y2="275" stroke="#8db4e2" stroke-width="1.2" />
<line x1="60" y1="288" x2="440" y2="288" stroke="#8db4e2" stroke-width="1.2" />
<line x1="60" y1="301" x2="440" y2="301" stroke="#8db4e2" stroke-width="1.2" />
<line x1="60" y1="314" x2="440" y2="314" stroke="#8db4e2" stroke-width="1.2" />
<line x1="60" y1="327" x2="440" y2="327" stroke="#8db4e2" stroke-width="1.2" />
<line x1="60" y1="340" x2="440" y2="340" stroke="#8db4e2" stroke-width="1.2" />
<line x1="60" y1="353" x2="440" y2="353" stroke="#8db4e2" stroke-width="1.2" />

  </g>
</svg>